<svg xmlns="http://www.w3.org/2000/svg" xmlns:xlink="http://www.w3.org/1999/xlink" width="2000" zoomAndPan="magnify" viewBox="0 0 1500 1499.999933" height="2000" preserveAspectRatio="xMidYMid meet" version="1.0"><defs><g/><clipPath id="5babe04e3b"><path d="M 0.320312 63 L 1215 63 L 1215 383 L 0.320312 383 Z M 0.320312 63 " clip-rule="nonzero"/></clipPath><clipPath id="d83c2c7407"><rect x="0" width="1249" y="0" height="476"/></clipPath><clipPath id="046126a9d7"><path d="M 1349.15625 790.339844 L 1399.59375 790.339844 L 1399.59375 840.222656 L 1349.15625 840.222656 Z M 1349.15625 790.339844 " clip-rule="nonzero"/></clipPath><clipPath id="7e659953fa"><path d="M 0.15625 0.339844 L 50.59375 0.339844 L 50.59375 50.222656 L 0.15625 50.222656 Z M 0.15625 0.339844 " clip-rule="nonzero"/></clipPath><clipPath id="a5c14d526b"><rect x="0" width="51" y="0" height="51"/></clipPath></defs><g transform="matrix(1, 0, 0, 1, 100, 458)"><g clip-path="url(#d83c2c7407)"><g clip-path="url(#5babe04e3b)"><g fill="#000000" fill-opacity="1"><g transform="translate(0.408018, 382.145202)"><g><path d="M 0 -318.40625 L 0 0 L 163.203125 0 L 163.203125 -49.734375 L 58.84375 -49.734375 L 58.84375 -152.328125 L 135.21875 -152.328125 L 135.21875 -202.28125 L 58.84375 -202.28125 L 58.84375 -268.671875 L 163.203125 -268.671875 L 163.203125 -318.40625 Z M 0 -318.40625 "/></g></g><g transform="translate(196.918862, 382.145202)"><g><path d="M 132.125 -318.40625 L 132.125 -144.328125 L 61.28125 -318.40625 L 0 -318.40625 L 0 0 L 58.84375 0 L 58.84375 -173.640625 L 129.671875 0 L 190.734375 0 L 190.734375 -318.40625 Z M 132.125 -318.40625 "/></g></g><g transform="translate(420.963426, 382.145202)"><g><path d="M 112.140625 -49.515625 L 58.84375 -49.515625 L 58.84375 -268.234375 L 112.140625 -268.234375 L 112.140625 -234.921875 L 171.203125 -234.921875 L 171.203125 -280.4375 C 171.203125 -292.132812 167.5 -301.460938 160.09375 -308.421875 C 153.28125 -315.078125 143.878906 -318.40625 131.890625 -318.40625 L 39.078125 -318.40625 C 27.234375 -318.40625 17.910156 -315.078125 11.109375 -308.421875 C 3.703125 -301.460938 0 -292.132812 0 -280.4375 L 0 -37.96875 C 0 -26.425781 3.253906 -17.320312 9.765625 -10.65625 C 16.578125 -3.550781 26.273438 0 38.859375 0 L 132.125 0 C 144.851562 0 154.617188 -3.550781 161.421875 -10.65625 C 167.941406 -17.320312 171.203125 -26.425781 171.203125 -37.96875 L 171.203125 -83.484375 L 112.140625 -83.484375 Z M 112.140625 -49.515625 "/></g></g><g transform="translate(625.467929, 382.145202)"><g><path d="M 112.140625 -49.515625 L 58.84375 -49.515625 L 58.84375 -268.234375 L 112.140625 -268.234375 Z M 160.09375 -308.421875 C 153.28125 -315.078125 143.878906 -318.40625 131.890625 -318.40625 L 39.078125 -318.40625 C 27.234375 -318.40625 17.910156 -315.078125 11.109375 -308.421875 C 3.703125 -301.460938 0 -292.132812 0 -280.4375 L 0 -37.96875 C 0 -26.425781 3.253906 -17.320312 9.765625 -10.65625 C 16.578125 -3.550781 26.273438 0 38.859375 0 L 132.125 0 C 144.851562 0 154.617188 -3.550781 161.421875 -10.65625 C 167.941406 -17.320312 171.203125 -26.425781 171.203125 -37.96875 L 171.203125 -280.4375 C 171.203125 -292.132812 167.5 -301.460938 160.09375 -308.421875 Z M 160.09375 -308.421875 "/></g></g><g transform="translate(829.972433, 382.145202)"><g><path d="M 59.0625 -268.234375 L 113.015625 -268.234375 L 113.015625 -183.859375 L 59.0625 -183.859375 Z M 59.0625 -134.34375 L 91.921875 -134.34375 L 127.90625 0 L 187.84375 0 L 150.984375 -138.78125 C 157.203125 -141.445312 162.238281 -145.882812 166.09375 -152.09375 C 169.9375 -158.3125 171.859375 -165.269531 171.859375 -172.96875 L 171.859375 -280.21875 C 171.859375 -292.207031 168.304688 -301.609375 161.203125 -308.421875 C 154.390625 -315.078125 144.988281 -318.40625 133 -318.40625 L 0 -318.40625 L 0 0 L 59.0625 0 Z M 59.0625 -134.34375 "/></g></g><g transform="translate(1051.1304, 382.145202)"><g><path d="M 0 -318.40625 L 0 0 L 163.203125 0 L 163.203125 -49.734375 L 58.84375 -49.734375 L 58.84375 -152.328125 L 135.21875 -152.328125 L 135.21875 -202.28125 L 58.84375 -202.28125 L 58.84375 -268.671875 L 163.203125 -268.671875 L 163.203125 -318.40625 Z M 0 -318.40625 "/></g></g></g></g></g></g><g clip-path="url(#046126a9d7)"><g transform="matrix(1, 0, 0, 1, 1349, 790)"><g clip-path="url(#a5c14d526b)"><g clip-path="url(#7e659953fa)"><path fill="#fe5700" d="M 0.15625 0.339844 L 50.625 0.339844 L 50.625 50.222656 L 0.15625 50.222656 Z M 0.15625 0.339844 " fill-opacity="1" fill-rule="nonzero"/></g></g></g></g></svg>